<?xml version="1.0" standalone="no"?>
<!DOCTYPE svg PUBLIC "-//W3C//DTD SVG 20010904//EN"
 "http://www.w3.org/TR/2001/REC-SVG-20010904/DTD/svg10.dtd">
<svg version="1.0" xmlns="http://www.w3.org/2000/svg"
 width="500.000000pt" height="150.000000pt" viewBox="0 0 500.000000 150.000000"
 preserveAspectRatio="xMidYMid meet">

<g transform="translate(0.000000,150.000000) scale(0.100000,-0.100000)"
fill="#000000" stroke="none">
<path d="M2062 958 c-61 -10 -126 -48 -130 -76 -3 -19 7 -27 62 -52 71 -31 80
-47 49 -84 -13 -15 -10 -14 10 3 47 42 32 72 -55 110 -34 14 -46 25 -42 35 10
26 136 65 169 52 13 -5 14 -10 5 -28 -11 -22 -10 -22 4 -4 34 42 7 58 -72 44z"/>
<path d="M2759 945 c-19 -14 -68 -67 -109 -118 -52 -63 -91 -101 -125 -119
-28 -15 -44 -28 -37 -28 7 0 30 11 51 24 l38 24 -5 -24 c-4 -21 -1 -24 24 -24
17 0 42 11 59 26 l30 26 -32 -21 c-68 -45 -86 -11 -25 47 20 20 28 29 18 21
-18 -13 -19 -13 -8 8 20 36 123 143 154 159 51 27 32 -7 -49 -86 -43 -41 -67
-66 -53 -55 61 48 140 131 140 147 0 26 -30 22 -71 -7z"/>
<path d="M2294 936 c-76 -35 -118 -100 -74 -114 12 -4 13 -2 3 10 -17 20 7 52
60 80 30 16 65 23 127 26 99 4 127 -8 116 -51 -8 -32 -108 -84 -181 -93 l-50
-7 50 52 c27 28 58 54 68 57 13 4 16 9 9 16 -16 16 -69 -18 -97 -62 -14 -22
-34 -46 -45 -52 -11 -7 -20 -16 -20 -20 0 -5 -13 -27 -30 -50 -16 -22 -30 -45
-30 -50 0 -16 27 -8 46 14 16 19 16 20 1 9 -30 -24 -28 -6 4 36 29 37 36 41
91 47 108 11 198 64 198 117 0 43 -32 59 -120 59 -58 0 -87 -6 -126 -24z"/>
<path d="M3085 850 c-10 -11 -25 -20 -33 -20 -8 0 -12 -6 -9 -15 4 -9 -13 -31
-44 -59 -86 -77 -190 -100 -145 -31 19 29 93 85 113 85 25 0 13 -19 -29 -44
-24 -14 -38 -26 -33 -26 17 0 75 39 82 56 10 28 -11 34 -53 15 -58 -26 -114
-78 -114 -107 0 -59 103 -30 193 55 49 46 87 65 87 42 0 -5 -18 -27 -40 -49
-38 -38 -50 -65 -32 -76 13 -8 86 31 113 61 18 19 11 16 -24 -11 -27 -20 -53
-36 -58 -36 -22 0 -5 30 43 78 l52 52 -39 0 c-38 0 -38 0 -20 20 10 11 16 22
13 25 -3 3 -13 -4 -23 -15z"/>
<path d="M2795 840 c-22 -11 -46 -30 -54 -42 -12 -19 -11 -24 8 -39 29 -23 26
-44 -8 -68 -33 -23 -67 -29 -55 -8 5 7 0 6 -11 -3 -17 -14 -17 -15 9 -18 30
-4 83 23 100 51 9 15 7 22 -13 38 -13 10 -21 25 -18 33 8 19 46 44 86 56 26 7
31 6 31 -8 0 -14 2 -15 9 -2 23 35 -23 40 -84 10z"/>
<path d="M2531 814 c-46 -19 -109 -71 -117 -96 -7 -23 17 -49 45 -47 10 0 7 4
-7 9 -22 9 -22 11 -8 39 14 26 98 91 119 91 19 0 -2 -26 -39 -48 -21 -13 -31
-21 -21 -18 10 3 22 6 26 6 12 0 61 47 61 58 0 18 -26 20 -59 6z"/>
<path d="M1827 765 c-39 -27 -57 -69 -38 -88 18 -18 99 -12 163 13 73 27 85
43 15 19 -57 -20 -142 -25 -152 -9 -11 18 5 48 38 69 18 11 27 21 22 21 -6 0
-27 -11 -48 -25z"/>
<path d="M2700 750 c-8 -5 -12 -12 -9 -15 4 -3 12 1 19 10 14 17 11 19 -10 5z"/>
<path d="M2113 703 c-15 -5 -17 -23 -4 -23 5 0 11 7 15 15 3 8 4 15 3 14 -1 0
-8 -3 -14 -6z"/>
</g>
</svg>
